<svg xmlns="http://www.w3.org/2000/svg" width="250" height="250" viewBox="0 0 250 250">
  <style>
    @media (prefers-color-scheme: dark) {
      #bg {
        fill: #fff;
      }
    }
  </style>
  <g fill="none" fill-rule="evenodd">
    <rect id="bg" width="250" height="250" rx="62"/>
    <g transform="translate(17.127 22.183)">
      <path fill="#FFF" d="M107.782433,201.460412 C100.630198,201.460412 37.6321029,172.180636 37.6321029,83.2423466 L37.6321029,74.0933295 C37.6321029,74.0933295 37.6321029,3.82164175 107.782433,3.82164175 C177.933887,3.82164175 177.933887,74.0933295 177.933887,74.0933295 L177.933887,83.2423466 C177.933887,172.180636 114.893091,201.460412 107.782433,201.460412"/>
      <path fill="#FC7B66" d="M158.203158,80.6803521 C158.203158,108.575752 57.3617077,108.575752 57.3617077,80.6803521 C57.3617077,52.7871992 79.9364748,30.1731033 107.782433,30.1731033 C135.629515,30.1731033 158.203158,52.7871992 158.203158,80.6814758"/>
      <path fill="#282841" fill-rule="nonzero" d="M107.782433,33.4677383 C81.7916734,33.4677383 60.6496006,54.6468925 60.6496006,80.6825995 C60.6496006,90.730562 80.9118305,98.3075482 107.783557,98.3075482 C134.650788,98.3075482 154.916389,90.730562 154.916389,80.6825995 C154.916389,54.6468925 133.773193,33.4677383 107.782433,33.4677383 M107.783557,104.895695 C94.1959966,104.895695 81.4826609,102.967457 71.9808077,99.4638168 C57.1785476,94.0027233 54.0726911,86.2358348 54.0726911,80.6825995 C54.0726911,51.015153 78.1655523,26.8807156 107.782433,26.8807156 C137.400438,26.8807156 161.493299,51.015153 161.493299,80.6825995 C161.493299,97.4086028 134.519317,104.895695 107.783557,104.895695"/>
      <path fill="#9BA4B1" d="M61.5856275,165.139646 C80.2185189,191.375368 103.589976,201.459289 107.782433,201.459289 C111.950169,201.459289 135.319379,191.377616 153.959012,165.149759 C131.870799,177.023705 83.6592325,177.020334 61.5856275,165.138522"/>
      <path fill="#282841" fill-rule="nonzero" d="M151.865593,162.514725 C130.51901,173.596475 84.9638271,173.584115 63.653202,162.492252 C51.1578606,144.525704 40.9211195,118.814741 40.9211195,83.2423466 L40.9211195,74.0978242 C40.9211195,73.9270246 41.0503429,56.9099876 49.4397511,40.2323026 C60.4956562,18.2564579 80.1252533,7.11627674 107.781309,7.11627674 C135.439613,7.11627674 155.070334,18.2564579 166.126239,40.2311789 C174.513399,56.9099876 174.645994,73.9270246 174.645994,74.0933295 L174.645994,83.2423466 C174.645994,118.818112 164.382285,144.539188 151.864469,162.514725 M108.119538,198.130943 C108.009662,198.147612 107.899033,198.158862 107.788051,198.164654 C104.83951,198.039925 87.9348417,190.93039 71.8268633,172.75259 C92.7689207,178.958685 122.770101,178.958685 143.715529,172.760456 C128.125568,190.341581 111.789482,197.575844 108.118414,198.130943 M202.413294,149.820492 L202.413294,104.468695 C202.413294,96.4905548 197.880362,81.8242602 181.222903,80.1151402 L181.222903,74.0922058 C181.222903,73.3561942 180.383513,0.527006757 107.782433,0.527006757 C35.1824767,0.527006757 34.3430864,73.3561942 34.3430864,74.0922058 L34.3430864,80.1151402 C17.6867513,81.8265075 13.1526953,96.4916785 13.1526953,104.469819 L13.1526953,149.819369 C5.65773778,151.349823 0,158.00539 0,165.95881 C0,175.038159 7.37472355,182.428614 16.4417119,182.428614 C18.2591696,182.426133 19.730847,180.951438 19.7296048,179.133979 C19.7302266,177.316959 18.2587306,175.842948 16.4417119,175.840468 C11.0019683,175.840468 6.5757858,171.405296 6.5757858,165.95881 C6.5757858,160.511201 11.0019683,156.076029 16.4417119,156.076029 C21.8814554,156.076029 26.3076379,160.511201 26.3076379,165.95881 C26.3076353,167.774954 27.7782662,169.248098 29.5944071,169.251198 C31.4109871,169.248718 32.8823017,167.775392 32.8823,165.95881 C32.8823,158.00539 27.2256859,151.350947 19.7296048,149.820492 L19.7296048,104.468695 C19.7296048,103.785497 19.9116412,88.7191716 34.3824152,86.7504811 C35.0453875,121.438538 45.5079886,147.412442 58.4213396,166.030726 C58.5213473,166.386933 58.6820338,166.730779 58.9045228,167.046534 C64.7642821,175.301527 71.6686989,182.762679 79.4454258,189.243744 C92.1587615,199.95805 103.663016,204.750553 107.782433,204.750553 C112.056919,204.750553 124.287071,199.590606 137.567866,188.004323 C144.746398,181.816308 151.149623,174.782231 156.63787,167.055523 C156.853617,166.752129 157.008685,166.422891 157.109816,166.082415 C170.038899,147.459637 180.519479,121.470001 181.182451,86.7482337 C195.288028,88.6360191 195.824025,102.767441 195.835261,104.468695 L195.835261,149.819369 C188.340304,151.349823 182.682566,158.00539 182.682566,165.957686 C182.682564,167.774268 184.153879,169.247594 185.970459,169.250074 C187.787478,169.248214 189.259476,167.774706 189.259476,165.957686 C189.259476,160.510077 193.686782,156.074905 199.124278,156.074905 C204.56065,156.074905 208.987957,160.510077 208.987957,165.957686 C208.987957,171.404172 204.56065,175.839344 199.124278,175.839344 C197.30682,175.841205 195.83464,177.315397 195.835261,179.132855 C195.834019,180.950753 197.306381,182.425629 199.124278,182.42749 C208.187895,182.42749 215.564866,175.037035 215.564866,165.957686 C215.564866,158.00539 209.906005,151.349823 202.412171,149.819369"/>
      <path fill="#FFF" d="M72.7168193,84.5570543 C70.8998006,84.5545738 69.4283046,83.0805633 69.4289264,81.2635429 C69.4289264,60.0843887 86.6302471,42.8516048 107.773444,42.8516048 C109.590901,42.8540856 111.062579,44.3287809 111.061336,46.1462398 C111.061958,47.9632601 109.590462,49.4372707 107.773444,49.4397511 C90.2574919,49.4397511 76.0058359,63.7172519 76.0058359,81.2624193 C76.0070777,83.0803165 74.534716,84.5551933 72.7168193,84.5570543"/>
    </g>
  </g>
</svg>
